<svg width="401" height="310" viewBox="0 0 401 310" fill="none" xmlns="http://www.w3.org/2000/svg">
<g clip-path="url(#clip0_205_376)">
<path d="M362.952 296.541H38.0476C32.3586 296.541 26.7419 295.265 21.6114 292.806C16.4809 290.348 11.9671 286.77 8.40262 282.336C4.83809 277.902 2.31355 272.725 1.01494 267.186C-0.283668 261.647 -0.323277 255.888 0.899027 250.331L15.4115 184.367H385.589L400.101 250.331C401.323 255.888 401.284 261.647 399.985 267.186C398.687 272.725 396.162 277.902 392.597 282.336C389.033 286.77 384.519 290.348 379.389 292.806C374.258 295.265 368.642 296.541 362.952 296.541ZM16.3041 185.478L1.98361 250.57C0.797028 255.964 0.835509 261.556 2.09622 266.933C3.35693 272.31 5.80777 277.336 9.26822 281.64C12.7287 285.945 17.1106 289.418 22.0913 291.805C27.072 294.191 32.5247 295.43 38.0476 295.43H362.952C368.475 295.43 373.928 294.191 378.909 291.805C383.889 289.418 388.271 285.945 391.732 281.64C395.192 277.336 397.643 272.31 398.904 266.933C400.165 261.556 400.203 255.964 399.016 250.57L384.696 185.478H16.3041Z" fill="#F2F2F2"/>
<path d="M321.697 43.5247L338.74 40.9847L336.048 29.1292L325.83 34.2751L304.75 26.3304C304.45 25.5549 303.93 24.8836 303.255 24.3983C302.58 23.913 301.778 23.6346 300.947 23.5971C300.116 23.5597 299.293 23.7647 298.576 24.1873C297.86 24.6099 297.282 25.2317 296.914 25.977C296.545 26.7223 296.401 27.5588 296.499 28.3845C296.597 29.2103 296.934 29.9896 297.467 30.6275C298.001 31.2653 298.708 31.7342 299.504 31.9768C300.299 32.2195 301.148 32.2255 301.947 31.9941L321.697 43.5247Z" fill="#FFB6B6"/>
<path d="M356.337 34.6621C355.019 39.657 324.657 45.2913 324.672 44.2107C324.715 41.1395 326.668 34.6953 325.553 33.0235C324.915 32.0675 333.501 29.6245 333.501 29.6245C333.501 29.6245 338.24 27.8005 344.383 25.5744C346.108 24.9129 347.973 24.6986 349.803 24.9514C351.633 25.2043 353.37 25.9162 354.851 27.0207C354.851 27.0207 357.654 29.6671 356.337 34.6621Z" fill="#65AEFF"/>
<path d="M62.6211 242.673H52.0701C49.7136 242.673 47.4537 243.609 45.7874 245.275C44.1212 246.941 43.1851 249.201 43.1851 251.558C43.1851 253.914 44.1212 256.174 45.7874 257.841C47.4537 259.507 49.7136 260.443 52.0701 260.443H62.6211C64.9776 260.443 67.2375 259.507 68.9038 257.841C70.57 256.174 71.5061 253.914 71.5061 251.558C71.5061 249.201 70.57 246.941 68.9038 245.275C67.2375 243.609 64.9776 242.673 62.6211 242.673Z" fill="#E6E6E6"/>
<path d="M96.4954 242.673H85.9444C83.5879 242.673 81.328 243.609 79.6617 245.275C77.9954 246.941 77.0593 249.201 77.0593 251.558C77.0593 253.914 77.9954 256.174 79.6617 257.841C81.328 259.507 83.5879 260.443 85.9444 260.443H96.4954C98.8518 260.443 101.112 259.507 102.778 257.841C104.444 256.174 105.38 253.914 105.38 251.558C105.38 249.201 104.444 246.941 102.778 245.275C101.112 243.609 98.8518 242.673 96.4954 242.673Z" fill="#E6E6E6"/>
<path d="M130.37 242.673H119.819C117.462 242.673 115.202 243.609 113.536 245.275C111.87 246.941 110.934 249.201 110.934 251.558C110.934 253.914 111.87 256.174 113.536 257.841C115.202 259.507 117.462 260.443 119.819 260.443H130.37C132.726 260.443 134.986 259.507 136.652 257.841C138.319 256.174 139.255 253.914 139.255 251.558C139.255 249.201 138.319 246.941 136.652 245.275C134.986 243.609 132.726 242.673 130.37 242.673Z" fill="#E6E6E6"/>
<path d="M164.244 242.673H153.693C151.336 242.673 149.077 243.609 147.41 245.275C145.744 246.941 144.808 249.201 144.808 251.558C144.808 253.914 145.744 256.174 147.41 257.841C149.077 259.507 151.336 260.443 153.693 260.443H164.244C166.6 260.443 168.86 259.507 170.527 257.841C172.193 256.174 173.129 253.914 173.129 251.558C173.129 249.201 172.193 246.941 170.527 245.275C168.86 243.609 166.6 242.673 164.244 242.673Z" fill="#E6E6E6"/>
<path d="M198.118 242.673H187.567C185.211 242.673 182.951 243.609 181.284 245.275C179.618 246.941 178.682 249.201 178.682 251.558C178.682 253.914 179.618 256.174 181.284 257.841C182.951 259.507 185.211 260.443 187.567 260.443H198.118C200.475 260.443 202.735 259.507 204.401 257.841C206.067 256.174 207.003 253.914 207.003 251.558C207.003 249.201 206.067 246.941 204.401 245.275C202.735 243.609 200.475 242.673 198.118 242.673Z" fill="#E6E6E6"/>
<path d="M231.992 242.673H221.441C219.085 242.673 216.825 243.609 215.159 245.275C213.492 246.941 212.556 249.201 212.556 251.558C212.556 253.914 213.492 256.174 215.159 257.841C216.825 259.507 219.085 260.443 221.441 260.443H231.992C234.349 260.443 236.609 259.507 238.275 257.841C239.941 256.174 240.877 253.914 240.877 251.558C240.877 249.201 239.941 246.941 238.275 245.275C236.609 243.609 234.349 242.673 231.992 242.673Z" fill="#E6E6E6"/>
<path d="M265.866 242.673H255.315C252.959 242.673 250.699 243.609 249.033 245.275C247.367 246.941 246.43 249.201 246.43 251.558C246.43 253.914 247.367 256.174 249.033 257.841C250.699 259.507 252.959 260.443 255.315 260.443H265.866C268.223 260.443 270.483 259.507 272.149 257.841C273.815 256.174 274.751 253.914 274.751 251.558C274.751 249.201 273.815 246.941 272.149 245.275C270.483 243.609 268.223 242.673 265.866 242.673Z" fill="#E6E6E6"/>
<path d="M299.741 242.673H289.19C286.833 242.673 284.573 243.609 282.907 245.275C281.241 246.941 280.305 249.201 280.305 251.558C280.305 253.914 281.241 256.174 282.907 257.841C284.573 259.507 286.833 260.443 289.19 260.443H299.741C302.097 260.443 304.357 259.507 306.023 257.841C307.69 256.174 308.626 253.914 308.626 251.558C308.626 249.201 307.69 246.941 306.023 245.275C304.357 243.609 302.097 242.673 299.741 242.673Z" fill="#E6E6E6"/>
<path d="M333.615 242.673H323.064C320.708 242.673 318.448 243.609 316.781 245.275C315.115 246.941 314.179 249.201 314.179 251.558C314.179 253.914 315.115 256.174 316.781 257.841C318.448 259.507 320.708 260.443 323.064 260.443H333.615C335.971 260.443 338.231 259.507 339.898 257.841C341.564 256.174 342.5 253.914 342.5 251.558C342.5 249.201 341.564 246.941 339.898 245.275C338.231 243.609 335.971 242.673 333.615 242.673Z" fill="#E6E6E6"/>
<path d="M62.6211 205.467H52.0701C49.7136 205.467 47.4537 206.403 45.7874 208.069C44.1212 209.735 43.1851 211.995 43.1851 214.352C43.1851 216.708 44.1212 218.968 45.7874 220.634C47.4537 222.301 49.7136 223.237 52.0701 223.237H62.6211C64.9776 223.237 67.2375 222.301 68.9038 220.634C70.57 218.968 71.5061 216.708 71.5061 214.352C71.5061 211.995 70.57 209.735 68.9038 208.069C67.2375 206.403 64.9776 205.467 62.6211 205.467Z" fill="#E6E6E6"/>
<path d="M96.4954 205.467H85.9444C83.5879 205.467 81.328 206.403 79.6617 208.069C77.9954 209.735 77.0593 211.995 77.0593 214.352C77.0593 216.708 77.9954 218.968 79.6617 220.634C81.328 222.301 83.5879 223.237 85.9444 223.237H96.4954C98.8518 223.237 101.112 222.301 102.778 220.634C104.444 218.968 105.38 216.708 105.38 214.352C105.38 211.995 104.444 209.735 102.778 208.069C101.112 206.403 98.8518 205.467 96.4954 205.467Z" fill="#E6E6E6"/>
<path d="M130.37 205.467H119.819C117.462 205.467 115.202 206.403 113.536 208.069C111.87 209.735 110.934 211.995 110.934 214.352C110.934 216.708 111.87 218.968 113.536 220.634C115.202 222.301 117.462 223.237 119.819 223.237H130.37C132.726 223.237 134.986 222.301 136.652 220.634C138.319 218.968 139.255 216.708 139.255 214.352C139.255 211.995 138.319 209.735 136.652 208.069C134.986 206.403 132.726 205.467 130.37 205.467Z" fill="#646CFF"/>
<path d="M164.244 205.467H153.693C151.336 205.467 149.077 206.403 147.41 208.069C145.744 209.735 144.808 211.995 144.808 214.352C144.808 216.708 145.744 218.968 147.41 220.634C149.077 222.301 151.336 223.237 153.693 223.237H164.244C166.6 223.237 168.86 222.301 170.527 220.634C172.193 218.968 173.129 216.708 173.129 214.352C173.129 211.995 172.193 209.735 170.527 208.069C168.86 206.403 166.6 205.467 164.244 205.467Z" fill="#E6E6E6"/>
<path d="M198.118 205.467H187.567C185.211 205.467 182.951 206.403 181.284 208.069C179.618 209.735 178.682 211.995 178.682 214.352C178.682 216.708 179.618 218.968 181.284 220.634C182.951 222.301 185.211 223.237 187.567 223.237H198.118C200.475 223.237 202.735 222.301 204.401 220.634C206.067 218.968 207.003 216.708 207.003 214.352C207.003 211.995 206.067 209.735 204.401 208.069C202.735 206.403 200.475 205.467 198.118 205.467Z" fill="#E6E6E6"/>
<path d="M231.992 205.467H221.441C219.085 205.467 216.825 206.403 215.159 208.069C213.492 209.735 212.556 211.995 212.556 214.352C212.556 216.708 213.492 218.968 215.159 220.634C216.825 222.301 219.085 223.237 221.441 223.237H231.992C234.349 223.237 236.609 222.301 238.275 220.634C239.941 218.968 240.877 216.708 240.877 214.352C240.877 211.995 239.941 209.735 238.275 208.069C236.609 206.403 234.349 205.467 231.992 205.467Z" fill="#E6E6E6"/>
<path d="M265.866 205.467H255.315C252.959 205.467 250.699 206.403 249.033 208.069C247.367 209.735 246.43 211.995 246.43 214.352C246.43 216.708 247.367 218.968 249.033 220.634C250.699 222.301 252.959 223.237 255.315 223.237H265.866C268.223 223.237 270.483 222.301 272.149 220.634C273.815 218.968 274.751 216.708 274.751 214.352C274.751 211.995 273.815 209.735 272.149 208.069C270.483 206.403 268.223 205.467 265.866 205.467Z" fill="#E6E6E6"/>
<path d="M299.741 205.467H289.19C286.833 205.467 284.573 206.403 282.907 208.069C281.241 209.735 280.305 211.995 280.305 214.352C280.305 216.708 281.241 218.968 282.907 220.634C284.573 222.301 286.833 223.237 289.19 223.237H299.741C302.097 223.237 304.357 222.301 306.023 220.634C307.69 218.968 308.626 216.708 308.626 214.352C308.626 211.995 307.69 209.735 306.023 208.069C304.357 206.403 302.097 205.467 299.741 205.467Z" fill="#E6E6E6"/>
<path d="M333.615 205.467H323.064C320.708 205.467 318.448 206.403 316.781 208.069C315.115 209.735 314.179 211.995 314.179 214.352C314.179 216.708 315.115 218.968 316.781 220.634C318.448 222.301 320.708 223.237 323.064 223.237H333.615C335.971 223.237 338.231 222.301 339.898 220.634C341.564 218.968 342.5 216.708 342.5 214.352C342.5 211.995 341.564 209.735 339.898 208.069C338.231 206.403 335.971 205.467 333.615 205.467Z" fill="#E6E6E6"/>
<path d="M78.4478 224.625H67.8968C65.5403 224.625 63.2804 225.561 61.6141 227.227C59.9478 228.894 59.0117 231.154 59.0117 233.51C59.0117 235.867 59.9478 238.126 61.6141 239.793C63.2804 241.459 65.5403 242.395 67.8968 242.395H78.4478C80.8042 242.395 83.0642 241.459 84.7304 239.793C86.3967 238.126 87.3328 235.867 87.3328 233.51C87.3328 231.154 86.3967 228.894 84.7304 227.227C83.0642 225.561 80.8042 224.625 78.4478 224.625Z" fill="#E6E6E6"/>
<path d="M112.322 224.625H101.771C99.4143 224.625 97.1544 225.561 95.4881 227.227C93.8219 228.894 92.8857 231.154 92.8857 233.51C92.8857 235.867 93.8219 238.126 95.4881 239.793C97.1544 241.459 99.4143 242.395 101.771 242.395H112.322C114.678 242.395 116.938 241.459 118.604 239.793C120.271 238.126 121.207 235.867 121.207 233.51C121.207 231.154 120.271 228.894 118.604 227.227C116.938 225.561 114.678 224.625 112.322 224.625Z" fill="#E6E6E6"/>
<path d="M146.196 224.625H135.645C133.289 224.625 131.029 225.561 129.362 227.227C127.696 228.894 126.76 231.154 126.76 233.51C126.76 235.867 127.696 238.126 129.362 239.793C131.029 241.459 133.289 242.395 135.645 242.395H146.196C148.553 242.395 150.812 241.459 152.479 239.793C154.145 238.126 155.081 235.867 155.081 233.51C155.081 231.154 154.145 228.894 152.479 227.227C150.812 225.561 148.553 224.625 146.196 224.625Z" fill="#E6E6E6"/>
<path d="M180.07 224.625H169.519C167.163 224.625 164.903 225.561 163.237 227.227C161.57 228.894 160.634 231.154 160.634 233.51C160.634 235.867 161.57 238.126 163.237 239.793C164.903 241.459 167.163 242.395 169.519 242.395H180.07C182.427 242.395 184.687 241.459 186.353 239.793C188.019 238.126 188.955 235.867 188.955 233.51C188.955 231.154 188.019 228.894 186.353 227.227C184.687 225.561 182.427 224.625 180.07 224.625Z" fill="#E6E6E6"/>
<path d="M213.945 224.625H203.394C201.037 224.625 198.777 225.561 197.111 227.227C195.445 228.894 194.509 231.154 194.509 233.51C194.509 235.867 195.445 238.126 197.111 239.793C198.777 241.459 201.037 242.395 203.394 242.395H213.945C216.301 242.395 218.561 241.459 220.227 239.793C221.894 238.126 222.83 235.867 222.83 233.51C222.83 231.154 221.894 228.894 220.227 227.227C218.561 225.561 216.301 224.625 213.945 224.625Z" fill="#E6E6E6"/>
<path d="M247.819 224.625H237.268C234.911 224.625 232.651 225.561 230.985 227.227C229.319 228.894 228.383 231.154 228.383 233.51C228.383 235.867 229.319 238.126 230.985 239.793C232.651 241.459 234.911 242.395 237.268 242.395H247.819C250.175 242.395 252.435 241.459 254.101 239.793C255.768 238.126 256.704 235.867 256.704 233.51C256.704 231.154 255.768 228.894 254.101 227.227C252.435 225.561 250.175 224.625 247.819 224.625Z" fill="#E6E6E6"/>
<path d="M281.693 224.625H271.142C268.785 224.625 266.525 225.561 264.859 227.227C263.193 228.894 262.257 231.154 262.257 233.51C262.257 235.867 263.193 238.126 264.859 239.793C266.525 241.459 268.785 242.395 271.142 242.395H281.693C284.049 242.395 286.309 241.459 287.976 239.793C289.642 238.126 290.578 235.867 290.578 233.51C290.578 231.154 289.642 228.894 287.976 227.227C286.309 225.561 284.049 224.625 281.693 224.625Z" fill="#E6E6E6"/>
<path d="M315.567 224.625H305.016C302.66 224.625 300.4 225.561 298.733 227.227C297.067 228.894 296.131 231.154 296.131 233.51C296.131 235.867 297.067 238.126 298.733 239.793C300.4 241.459 302.66 242.395 305.016 242.395H315.567C317.924 242.395 320.184 241.459 321.85 239.793C323.516 238.126 324.452 235.867 324.452 233.51C324.452 231.154 323.516 228.894 321.85 227.227C320.184 225.561 317.924 224.625 315.567 224.625Z" fill="#E6E6E6"/>
<path d="M349.441 224.625H338.89C336.534 224.625 334.274 225.561 332.608 227.227C330.941 228.894 330.005 231.154 330.005 233.51C330.005 235.867 330.941 238.126 332.608 239.793C334.274 241.459 336.534 242.395 338.89 242.395H349.441C351.798 242.395 354.058 241.459 355.724 239.793C357.39 238.126 358.326 235.867 358.326 233.51C358.326 231.154 357.39 228.894 355.724 227.227C354.058 225.561 351.798 224.625 349.441 224.625Z" fill="#E6E6E6"/>
<path d="M310.365 184.92H91.1468C87.6695 184.916 84.3358 183.533 81.877 181.074C79.4182 178.615 78.0352 175.282 78.0312 171.804L78.0456 171.679C85.8011 138.123 85.7981 96.0555 78.0364 39.2908L78.0312 39.2154C78.0352 35.7381 79.4183 32.4045 81.8771 29.9457C84.3359 27.4869 87.6695 26.1038 91.1468 26.0999H310.365C313.842 26.1038 317.176 27.4869 319.635 29.9457C322.094 32.4045 323.477 35.7382 323.481 39.2154L323.469 39.3315C314.089 82.9519 314.089 128.068 323.469 171.688L323.481 171.805C323.477 175.282 322.094 178.615 319.635 181.074C317.176 183.533 313.842 184.916 310.365 184.92Z" fill="white"/>
<path d="M310.365 184.92H91.1468C87.6695 184.916 84.3358 183.533 81.877 181.074C79.4182 178.615 78.0352 175.282 78.0312 171.804L78.0456 171.679C85.8011 138.123 85.7981 96.0555 78.0364 39.2908L78.0312 39.2154C78.0352 35.7381 79.4183 32.4045 81.8771 29.9457C84.3359 27.4869 87.6695 26.1038 91.1468 26.0999H310.365C313.842 26.1038 317.176 27.4869 319.635 29.9457C322.094 32.4045 323.477 35.7382 323.481 39.2154L323.469 39.3315C314.089 82.9519 314.089 128.068 323.469 171.688L323.481 171.805C323.477 175.282 322.094 178.615 319.635 181.074C317.176 183.533 313.842 184.916 310.365 184.92ZM79.1422 171.867C79.1623 175.039 80.4355 178.074 82.6842 180.311C84.9329 182.548 87.9748 183.806 91.1468 183.809H310.365C313.538 183.806 316.58 182.548 318.829 180.31C321.078 178.072 322.351 175.035 322.37 171.863C312.973 128.126 312.973 82.8934 322.37 39.1574C322.351 35.9847 321.078 32.9482 318.829 30.7102C316.58 28.4721 313.538 27.2141 310.365 27.2105H91.1468C87.9705 27.2141 84.9248 28.4749 82.6753 30.7174C80.4258 32.9599 79.1554 36.0017 79.1419 39.178C86.9122 96.0248 86.9128 138.194 79.1422 171.867Z" fill="#E6E6E6"/>
<path d="M287.385 65.2496H110.239C109.282 65.2496 108.364 64.8693 107.687 64.1924C107.01 63.5155 106.63 62.5974 106.63 61.6401C106.63 60.6828 107.01 59.7647 107.687 59.0877C108.364 58.4108 109.282 58.0305 110.239 58.0305H287.385C288.342 58.0305 289.26 58.4108 289.937 59.0877C290.614 59.7647 290.994 60.6828 290.994 61.6401C290.994 62.5974 290.614 63.5155 289.937 64.1924C289.26 64.8693 288.342 65.2496 287.385 65.2496Z" fill="#E6E6E6"/>
<path d="M287.385 82.7418H110.239C109.282 82.7418 108.364 82.3615 107.687 81.6846C107.01 81.0077 106.63 80.0896 106.63 79.1323C106.63 78.1749 107.01 77.2568 107.687 76.5799C108.364 75.903 109.282 75.5227 110.239 75.5227H287.385C288.342 75.5227 289.26 75.903 289.937 76.5799C290.614 77.2568 290.994 78.1749 290.994 79.1323C290.994 80.0896 290.614 81.0077 289.937 81.6846C289.26 82.3615 288.342 82.7418 287.385 82.7418Z" fill="#E6E6E6"/>
<path d="M287.385 100.234H110.239C109.282 100.234 108.364 99.8542 107.687 99.1773C107.01 98.5003 106.63 97.5822 106.63 96.6249C106.63 95.6676 107.01 94.7495 107.687 94.0726C108.364 93.3957 109.282 93.0154 110.239 93.0154H287.385C288.342 93.0154 289.26 93.3957 289.937 94.0726C290.614 94.7495 290.994 95.6676 290.994 96.6249C290.994 97.5822 290.614 98.5003 289.937 99.1773C289.26 99.8542 288.342 100.234 287.385 100.234Z" fill="#E6E6E6"/>
<path d="M287.385 117.727H110.239C109.282 117.727 108.364 117.347 107.687 116.67C107.01 115.993 106.63 115.075 106.63 114.117C106.63 113.16 107.01 112.242 107.687 111.565C108.364 110.888 109.282 110.508 110.239 110.508H287.385C288.342 110.508 289.26 110.888 289.937 111.565C290.614 112.242 290.994 113.16 290.994 114.117C290.994 115.075 290.614 115.993 289.937 116.67C289.26 117.347 288.342 117.727 287.385 117.727Z" fill="#E6E6E6"/>
<path d="M287.385 135.219H110.239C109.282 135.219 108.364 134.839 107.687 134.162C107.01 133.485 106.63 132.567 106.63 131.61C106.63 130.652 107.01 129.734 107.687 129.057C108.364 128.381 109.282 128 110.239 128H287.385C288.342 128 289.26 128.381 289.937 129.057C290.614 129.734 290.994 130.652 290.994 131.61C290.994 132.567 290.614 133.485 289.937 134.162C289.26 134.839 288.342 135.219 287.385 135.219Z" fill="#E6E6E6"/>
<path d="M189.649 152.712H110.239C109.282 152.712 108.364 152.331 107.687 151.654C107.01 150.977 106.63 150.059 106.63 149.102C106.63 148.145 107.01 147.227 107.687 146.55C108.364 145.873 109.282 145.492 110.239 145.492H189.649C190.607 145.492 191.525 145.873 192.202 146.55C192.879 147.227 193.259 148.145 193.259 149.102C193.259 150.059 192.879 150.977 192.202 151.654C191.525 152.331 190.607 152.712 189.649 152.712Z" fill="#646CFF"/>
<path d="M199.746 180.2H185.128C184.907 180.198 184.688 180.146 184.489 180.048C184.29 179.95 184.116 179.808 183.98 179.634C183.818 179.428 183.705 179.19 183.647 178.935C183.589 178.68 183.589 178.416 183.646 178.161L190.525 147.038C190.579 146.688 190.756 146.37 191.023 146.138C191.289 145.906 191.63 145.776 191.983 145.77C192.337 145.765 192.681 145.885 192.954 146.108C193.228 146.332 193.414 146.645 193.479 146.993L201.218 178.115C201.283 178.373 201.289 178.642 201.235 178.902C201.181 179.162 201.07 179.406 200.908 179.617C200.772 179.796 200.596 179.942 200.395 180.043C200.193 180.144 199.971 180.198 199.746 180.2Z" fill="#E6E6E6"/>
<path d="M383.454 191.861H18.057C16.0688 191.861 14.162 191.072 12.7561 189.666C11.3501 188.26 10.5603 186.353 10.5603 184.365C10.5603 182.376 11.3501 180.47 12.7561 179.064C14.162 177.658 16.0688 176.868 18.057 176.868H383.454C385.442 176.868 387.349 177.658 388.755 179.064C390.161 180.47 390.951 182.376 390.951 184.365C390.951 186.353 390.161 188.26 388.755 189.666C387.349 191.072 385.442 191.861 383.454 191.861Z" fill="#F2F2F2"/>
<path d="M337.183 173.088L331.851 173.087L329.315 152.521L337.184 152.522L337.183 173.088Z" fill="#FFB6B6"/>
<path d="M338.543 178.256L321.351 178.255V178.038C321.351 176.263 322.056 174.561 323.311 173.306C324.566 172.051 326.268 171.346 328.042 171.346L331.183 168.964L337.043 171.347L338.543 171.347L338.543 178.256Z" fill="#2F2E41"/>
<path d="M385.361 166.156L380.589 168.534L369.144 151.259L376.187 147.749L385.361 166.156Z" fill="#FFB6B6"/>
<path d="M388.884 170.175L373.496 177.844L373.399 177.649C372.608 176.061 372.48 174.223 373.043 172.54C373.606 170.857 374.815 169.467 376.403 168.675L378.151 165.141L384.458 164.66L385.802 163.991L388.884 170.175Z" fill="#2F2E41"/>
<path d="M334.821 79.6836L364.222 80.7126L366.42 84.7954C366.42 84.7954 368.723 101.499 367.543 102.678C366.364 103.857 365.775 103.857 366.364 105.921C366.954 107.984 368.478 127.701 368.478 127.701C368.478 127.701 380.624 152.894 381.213 154.368C381.803 155.842 382.392 155.252 381.803 155.842C381.281 156.405 380.789 156.996 380.329 157.611H370.719C370.719 157.611 365.545 144.559 360.809 139.511C356.627 135.054 353.979 129.377 353.25 123.308L349.266 104.447L340.717 133.337C340.717 133.337 339.243 161.933 339.537 163.407L339.832 164.881L328.506 165.007C328.506 165.007 327.327 162.522 327.917 161.638C328.506 160.754 328.471 160.995 327.752 159.548C327.032 158.1 327.327 155.648 327.327 155.648C327.327 155.648 331.578 97.6664 331.578 96.782C331.6 96.3269 331.516 95.8729 331.333 95.4558V94.2553L332.462 90.0016L334.821 79.6836Z" fill="#2F2E41"/>
<path d="M347.498 26.3386C345.584 27.4763 344.439 29.5668 343.782 31.6939C342.565 35.6321 341.833 39.7039 341.601 43.8192L340.907 56.1397C340.561 64.0909 338.35 71.8492 334.451 78.7875C334.161 79.3157 333.996 79.9029 333.968 80.5045C333.94 81.106 334.05 81.7061 334.289 82.2589C334.528 82.8118 334.889 83.3029 335.346 83.6948C335.804 84.0868 336.344 84.3693 336.927 84.5208C347.583 87.317 367.765 83.8063 367.765 83.8063C367.765 83.8063 368.625 83.5198 367.765 82.6602C366.906 81.8005 364.977 77.5023 364.977 77.5023L367.27 62.4438L370.135 32.0696C366.696 27.7714 359.781 25.2376 359.781 25.2376L357.994 22.0212L349.06 22.736L347.498 26.3386Z" fill="#65AEFF"/>
<path d="M353.169 20.152C357.909 20.152 361.752 16.3095 361.752 11.5694C361.752 6.82938 357.909 2.98682 353.169 2.98682C348.429 2.98682 344.587 6.82938 344.587 11.5694C344.587 16.3095 348.429 20.152 353.169 20.152Z" fill="#FFB8B8"/>
<path d="M363.744 11.0598C363.361 12.7988 362.669 14.4551 361.703 15.9505C361.446 16.4604 361.063 16.8957 360.589 17.2147C360.35 17.3685 360.063 17.4334 359.781 17.3981C359.498 17.3627 359.237 17.2294 359.043 17.0214L358.834 16.8513C359.243 16.599 359.609 16.2817 359.916 15.9118C360.069 15.7262 360.174 15.507 360.225 15.2723C360.275 15.0376 360.269 14.7943 360.206 14.5625C360.132 14.334 359.972 14.1431 359.76 14.0299C359.549 13.9167 359.301 13.8901 359.07 13.9556C358.567 14.1528 358.262 14.8796 357.736 14.7675C357.311 14.6747 357.222 14.1141 357.222 13.6734C357.237 11.3691 356.124 8.09453 355.262 8.19505C354.391 8.24267 353.518 8.12594 352.691 7.85096C351.862 7.57551 350.987 7.4639 350.116 7.52233C350.054 7.53007 349.992 7.54168 349.926 7.55327C349.787 7.11548 349.595 6.69618 349.354 6.30451C349.381 6.77731 349.358 7.25165 349.285 7.71951C348.591 8.00532 347.875 8.23166 347.143 8.39608C346.346 8.50821 344.595 10.8897 344.514 10.6462C344.374 10.2084 344.182 9.78909 343.942 9.39742C343.969 9.87021 343.945 10.3446 343.872 10.8124C343.868 10.8317 343.868 10.8472 343.864 10.8665C343.478 10.3523 343.242 9.72603 343.373 10.2054C342.078 7.27492 342.581 5.17561 344.618 2.70515C345.015 2.17395 345.541 1.75226 346.145 1.47957C346.448 1.34658 346.78 1.29379 347.109 1.3263C347.438 1.3588 347.753 1.47551 348.024 1.66516C348.855 0.903277 349.875 0.377482 350.977 0.142277C352.08 -0.0929271 353.226 -0.028987 354.295 0.327473C356.418 1.06591 358.053 1.49892 358.378 3.72581C359.263 3.62897 360.158 3.78447 360.959 4.17438C361.76 4.5643 362.435 5.17273 362.905 5.92949C363.82 7.47327 364.119 9.30506 363.744 11.0598Z" fill="#2F2E41"/>
<path d="M372.904 66.8315L372.918 49.6003L360.794 50.5055L364.369 61.3731L353.388 81.0432C352.576 81.2253 351.835 81.6395 351.255 82.2354C350.675 82.8313 350.281 83.5831 350.121 84.3991C349.961 85.2151 350.041 86.0601 350.353 86.831C350.665 87.602 351.194 88.2655 351.877 88.7408C352.559 89.2161 353.365 89.4826 354.196 89.5078C355.027 89.533 355.848 89.3158 356.558 88.8826C357.268 88.4495 357.836 87.8192 358.194 87.0685C358.552 86.3179 358.684 85.4793 358.573 84.6551L372.904 66.8315Z" fill="#FFB6B6"/>
<path d="M369.273 31.2607C374.017 33.3041 375.089 64.1657 374.023 63.9906C370.992 63.4928 364.908 60.6069 363.09 61.4619C362.05 61.9508 360.906 53.0978 360.906 53.0978C360.906 53.0978 359.805 48.1411 358.514 41.7356C358.115 39.9314 358.18 38.0557 358.701 36.2831C359.222 34.5105 360.184 32.8987 361.496 31.5976C361.496 31.5976 364.528 29.2174 369.273 31.2607Z" fill="#65AEFF"/>
<path d="M76.2658 221.677C75.9516 221.39 75.7042 221.038 75.5408 220.645C75.3775 220.252 75.3022 219.829 75.3203 219.404C75.3384 218.979 75.4495 218.563 75.6456 218.186C75.8418 217.808 76.1183 217.479 76.4557 217.22L73.1985 207.408L78.3868 208.802L80.6845 217.906C81.0819 218.501 81.247 219.222 81.1485 219.931C81.05 220.641 80.6948 221.289 80.1501 221.754C79.6054 222.219 78.9092 222.467 78.1933 222.453C77.4774 222.439 76.7915 222.163 76.2658 221.677Z" fill="#FFB6B6"/>
<path d="M85.6689 168.368C86.5297 168.862 91.6232 167.639 92.6179 167.987C92.0688 171.337 95.0512 170.08 91.8126 174.48C88.5739 178.88 82.0509 192.072 80.5691 197.002C79.0873 201.933 80.5539 208.881 80.332 211.218C80.2247 212.572 80.2314 213.932 80.352 215.285C78.6022 215.263 76.8775 215.626 75.1004 215.394C73.2052 210.031 71.9309 202.398 71.0656 198.179C70.2004 193.961 70.1687 195.745 70.5656 193.635C70.9624 191.526 71.0585 193.059 70.6417 191.041C70.2248 189.023 71.9107 186.487 73.4685 185.041C74.1402 183.109 75.0082 181.308 75.6732 179.396C80.546 175.145 80.8664 172.69 85.6689 168.368Z" fill="#C03EFE"/>
<path d="M131.279 215.457C130.858 215.517 130.429 215.484 130.022 215.361C129.615 215.237 129.24 215.026 128.923 214.742C128.607 214.458 128.356 214.108 128.189 213.717C128.023 213.325 127.944 212.902 127.959 212.477L118.313 208.756L122.687 205.636L131.176 209.648C131.888 209.72 132.55 210.051 133.035 210.578C133.519 211.105 133.794 211.791 133.807 212.507C133.82 213.223 133.569 213.919 133.103 214.462C132.637 215.006 131.988 215.36 131.279 215.457Z" fill="#FFB6B6"/>
<path d="M96.0999 174.315C97.028 173.964 99.3213 169.255 100.222 168.708C102.46 171.261 103.385 168.16 104.723 173.457C106.061 178.753 112.1 192.174 114.965 196.452C117.829 200.729 124.126 204.013 125.789 205.67C126.766 206.613 127.82 207.473 128.941 208.24C127.812 209.576 126.996 211.139 125.688 212.363C120.343 210.418 113.64 206.55 109.833 204.537C106.026 202.524 107.383 203.682 106.007 202.035C104.631 200.388 105.875 201.288 104.052 200.327C102.229 199.366 101.343 196.453 101.217 194.331C100.153 192.585 99.3139 190.77 98.2606 189.042C98.076 182.578 96.3839 180.77 96.0999 174.315Z" fill="#C03EFE"/>
<path d="M103.357 203.462L108.17 224.942L77.3259 223.023L85.7134 201.927L103.357 203.462Z" fill="#FFB6B6"/>
<path d="M98.2208 302.601L101.685 302.6L103.334 289.237H98.2202L98.2208 302.601Z" fill="#FFB6B6"/>
<path d="M97.0476 300.891L102.525 300.564V302.911L107.732 306.507C107.989 306.685 108.183 306.94 108.285 307.236C108.387 307.531 108.391 307.851 108.298 308.15C108.205 308.448 108.019 308.709 107.768 308.894C107.516 309.079 107.211 309.179 106.899 309.179H100.378L99.2543 306.858L98.8155 309.179H96.3569L97.0476 300.891Z" fill="#2F2E41"/>
<path d="M65.4744 300.877L68.8601 301.611L73.3043 288.901L68.307 287.817L65.4744 300.877Z" fill="#FFB6B6"/>
<path d="M64.69 298.958L70.1119 299.799L69.6144 302.093L73.9408 306.711C74.1545 306.939 74.2897 307.23 74.3267 307.54C74.3636 307.85 74.3004 308.164 74.1463 308.436C73.9921 308.708 73.7551 308.924 73.4697 309.051C73.1844 309.179 72.8658 309.212 72.5604 309.146L66.188 307.763L65.5817 305.257L64.6607 307.432L62.2581 306.911L64.69 298.958Z" fill="#2F2E41"/>
<path d="M108.958 242.904C106.526 256.267 105.918 262.037 105.918 262.037C105.918 262.037 107.742 264.163 106.526 265.379C105.31 266.595 106.526 269.023 106.526 269.023L103.792 298.484L101.592 298.127L96.2904 297.275L94.3784 296.966L95.5942 269.329C95.5942 269.329 94.3784 266.897 94.9863 266.289C95.5942 265.681 94.3784 262.037 94.3784 262.037L92.8603 233.184L83.4431 264.771C83.4431 264.771 84.3566 265.987 83.4431 266.897C82.5329 267.807 80.7126 272.365 80.7126 272.365L75.1125 291.96L74.637 293.624L71.7164 293.077L68.5377 292.48L67.9536 292.371L66.9144 292.174L66.2454 292.048L66.0178 292.008L64.9175 291.8L65.2503 290.323L65.4235 289.545L70.161 268.503L70.2697 268.018L70.3852 267.505C70.3852 267.505 69.7773 265.987 70.6874 265.073C70.9537 264.795 71.1482 264.456 71.2541 264.086C71.36 263.715 71.3741 263.325 71.2953 262.947C71.2655 262.916 71.2383 262.882 71.2138 262.846C71.1063 262.698 71.0321 262.529 70.9965 262.35C70.9543 262.064 70.9879 261.773 71.094 261.505C71.2001 261.236 71.375 261.001 71.6009 260.822C71.774 260.638 71.9193 260.429 72.0323 260.203C72.956 258.454 73.4213 254.749 73.4213 254.749C73.4213 254.749 74.2431 225.404 76.9328 220.921C77.0754 220.687 79.9308 216.188 80.0802 216.096C83.1163 214.276 106.77 216.79 106.77 216.79C106.77 216.79 108.203 220.639 108.267 221.04C108.617 223.292 111.019 231.568 108.958 242.904Z" fill="#2F2E41"/>
<path d="M101.77 172.219C101.77 172.219 102.282 169.562 97.3641 164.644C94.7604 163.776 90.249 164.282 88.685 164.644C81.4525 174.191 82.7475 172.506 80.8648 177.84C80.3677 179.04 80.1901 180.348 80.3495 181.637C81.2174 185.977 82.6264 208.253 82.3371 209.41C82.0478 210.567 80.0227 212.014 82.0478 212.014C84.0729 212.014 110.189 211.557 109.61 210.689C109.031 209.821 101.77 172.219 101.77 172.219Z" fill="#C03EFE"/>
<path d="M93.6132 162.975C98.1944 162.975 101.908 159.261 101.908 154.68C101.908 150.099 98.1944 146.385 93.6132 146.385C89.0319 146.385 85.3181 150.099 85.3181 154.68C85.3181 159.261 89.0319 162.975 93.6132 162.975Z" fill="#FFB6B6"/>
<path d="M86.5853 157.817C86.5399 158.823 85.9094 159.69 85.4227 160.571C84.5738 162.142 84.1209 163.897 84.1031 165.684C84.0853 167.47 84.5032 169.233 85.3207 170.822C85.9978 172.106 86.9353 173.252 87.4725 174.601C87.7311 175.171 87.8621 175.79 87.8562 176.415C87.8504 177.041 87.708 177.658 87.4388 178.223C85.9849 176.824 85.2754 177.562 83.6244 176.341C84.2737 178.161 83.7202 178.22 84.372 180.038C81.5698 180.838 78.7666 181.64 75.9623 182.444C77.6839 181.047 78.8998 179.123 79.4235 176.969C79.9473 174.814 79.75 172.547 78.8619 170.515C77.8367 168.317 76.0045 166.505 75.3374 164.17C74.9743 162.906 74.9809 161.564 75.3563 160.303C75.7317 159.043 76.4602 157.916 77.4557 157.057C78.4513 156.198 79.6721 155.641 80.9739 155.454C82.2756 155.266 83.6038 155.456 84.8014 155.999C85.7441 155.73 86.6309 156.827 86.5853 157.817Z" fill="#2F2E41"/>
<path d="M97.0042 145.383C95.8887 142.946 92.9454 143.442 90.2842 143.763C88.9553 143.968 87.6964 144.494 86.6166 145.295C85.5368 146.097 84.6686 147.149 84.0873 148.362C82.9499 150.819 82.7324 153.603 83.4745 156.207C83.8726 157.981 84.8228 159.582 86.1884 160.782C87.5938 161.912 94.2008 164.585 94.7508 162.284C94.0632 165.287 92.2743 166.996 94.3218 169.298C95.3823 166.112 99.8669 163.086 100.927 159.901C101.087 159.421 100.431 153.785 100.591 153.306C100.928 152.295 101.265 151.282 101.508 150.245C101.813 148.942 101.931 147.448 101.121 146.382C100.312 145.316 98.2731 145.275 97.864 146.549" fill="#2F2E41"/>
<path d="M95.6688 155.527L95.3142 153.27C95.5552 150.462 95.1618 145.997 97.0043 145.383L98.131 146.51C97.4183 146.747 96.0627 150.945 95.6688 155.527Z" fill="#FF6584"/>
<path d="M257.953 268.22H143.558C141.202 268.22 138.942 269.156 137.276 270.823C135.609 272.489 134.673 274.749 134.673 277.105C134.673 279.462 135.609 281.722 137.276 283.388C138.942 285.054 141.202 285.99 143.558 285.99H257.953C260.31 285.99 262.57 285.054 264.236 283.388C265.902 281.722 266.838 279.462 266.838 277.105C266.838 274.749 265.902 272.489 264.236 270.823C262.57 269.156 260.31 268.22 257.953 268.22Z" fill="#E6E6E6"/>
</g>
<defs>
<clipPath id="clip0_205_376">
<rect width="401" height="309.95" fill="white"/>
</clipPath>
</defs>
</svg>
